<svg width="100" height="100" viewBox="0 0 100 100" fill="none" xmlns="http://www.w3.org/2000/svg">
<g clip-path="url(#clip0_1_30)">
<path d="M31.125 89.5833C17.5 83.0833 7.75 69.8333 6.25 54.1667H0C2.08333 79.8333 23.5833 100 49.7917 100L52.5417 99.875L36.6667 84L31.125 89.5833ZM34.8333 62.3333C34.0417 62.3333 33.3333 62.2083 32.6667 62C32.046 61.7896 31.4777 61.4487 31 61C30.5417 60.5833 30.1667 60.0833 29.9167 59.4583C29.6667 58.875 29.5417 58.2083 29.5417 57.5H24.125C24.125 59 24.4167 60.4167 25 61.4583C25.5833 62.5 26.375 63.5417 27.3333 64.3333C28.3333 65.0833 29.4583 65.6667 30.75 66.0417C32 66.4583 33.3333 66.6667 34.75 66.6667C36.2917 66.6667 37.75 66.4583 39.0417 66.0417C40.375 65.625 41.5417 65 42.5 64.2083C43.4583 63.4167 44.25 62.5 44.7917 61.2083C45.3333 60 45.625 58.6667 45.625 57.1667C45.625 56.375 45.5417 55.5833 45.3333 54.8333C45.125 54.1667 44.8333 53.375 44.375 52.7083C43.9583 52.0833 43.375 51.4583 42.7083 50.9167C42 50.375 41.1667 50 40.1667 49.625C41.6762 48.9594 42.9632 47.8749 43.875 46.5C44.2917 45.8333 44.5833 45.25 44.7917 44.5833C45 43.9167 45.0833 43.25 45.0833 42.5833C45.0833 41.0833 44.8333 39.75 44.3333 38.5833C43.75 37.5 43.125 36.4583 42.2083 35.7083C41.375 34.9167 40.25 34.3333 39 33.9167C37.7083 33.5417 36.2917 33.3333 34.75 33.3333C33.3333 33.3333 31.875 33.5417 30.5833 34C29.3333 34.4583 28.2083 35.0833 27.2917 35.875C26.4167 36.6667 25.7083 37.5 25.1667 38.6667C24.6667 39.75 24.4167 40.9167 24.4167 42.2083H29.8333C29.8333 41.5 29.9583 40.875 30.2083 40.3333C30.4437 39.7883 30.7999 39.3038 31.25 38.9167C31.7083 38.5417 32.2083 38.2083 32.8333 38C33.4583 37.7917 34.0833 37.6667 34.8333 37.6667C36.5 37.6667 37.75 38.0833 38.5417 38.9583C39.3333 39.7917 39.75 41 39.75 42.5417C39.75 43.2917 39.5833 43.9583 39.4167 44.5833C39.2095 45.1791 38.8504 45.7105 38.375 46.125C37.9167 46.5417 37.3333 46.875 36.6667 47.125C36 47.375 35.1667 47.5 34.25 47.5H31.0417V51.7917H34.25C35.1667 51.7917 36 51.875 36.75 52.0833C37.5 52.2917 38.125 52.625 38.625 53.0417C39.125 53.5 39.5833 54.0417 39.8333 54.7083C40.125 55.375 40.25 56.25 40.25 57.0833C40.25 58.7917 39.75 60.0833 38.7917 60.9583C37.8333 61.9167 36.5 62.3333 34.8333 62.3333ZM70.4583 37.6667C69.125 36.2917 67.5417 35.2083 65.7083 34.4583C63.9167 33.7083 61.875 33.3333 59.625 33.3333H49.7917V66.6667H59.375C61.6667 66.6667 63.7917 66.2917 65.6667 65.5417C67.5417 64.7917 69.1667 63.75 70.5 62.375C71.8333 61 72.9167 59.3333 73.5833 57.4167C74.2917 55.4583 74.6667 53.2917 74.6667 50.875V49.2083C74.6667 46.7917 74.2917 44.625 73.5833 42.6667C72.9167 40.7083 71.7917 39.0417 70.4583 37.6667ZM68.75 50.8333C68.75 52.5833 68.625 54.1667 68.25 55.5417C67.8333 56.9167 67.25 58.125 66.4583 59.0833C65.6667 60.0417 64.5833 60.7917 63.5 61.2917C62.2917 61.7917 60.9167 62.0417 59.375 62.0417H55.5833V38H59.625C62.625 38 64.9167 38.9583 66.4583 40.875C68.0417 42.7917 68.75 45.5417 68.75 49.1667M49.7917 0L47.0417 0.125L62.9167 16L68.4583 10.4167C82.0833 16.9167 91.8333 30.125 93.2917 45.8333H99.5417C97.4583 20.1667 76 0 49.7917 0Z" fill="white"/>
</g>
<defs>
<clipPath id="clip0_1_30">
<rect width="100" height="100" fill="white"/>
</clipPath>
</defs>
</svg>
